<svg id="logo" xmlns="http://www.w3.org/2000/svg" width="940.726" height="294.18" viewBox="0 0 940.726 294.18">
  <g id="logo-2" data-name="logo" transform="translate(0.026)">
    <path id="Caminho_1" data-name="Caminho 1" d="M287.8,106c-.6-1.8-1.2-3.7-1.8-5.5a166.63,166.63,0,0,0-10.2-22.9c-.8-1.6-1.7-3.1-2.6-4.6a192.771,192.771,0,0,0-28.9-36.1c2.7,3,35.4,43.9,43.5,69.1ZM87.2,12.8A148.3,148.3,0,0,1,113,4c-11.3,13.1,1.3,49.7,41.7,126.1,47,88.9,62.6,134.9,50.6,152A147.031,147.031,0,0,1,87.2,12.8ZM147.1,0a147.188,147.188,0,0,1,17.6,1.1c-16.7,5.5-.9,42.1,31.1,100.7,40.4,74,64,125.9,54.7,149.8A144.261,144.261,0,0,1,229.2,269c19-20.8-3.2-72.7-50.8-160.5C146,48.3,128.3,6.5,147.1,0Zm51.4,9.3c3.5,1.3,6.9,2.7,10.3,4.3-6-1.2-8.1,2.5-6.2,10.9C205.4,36.9,216,56,227.2,76.3c27.9,50.4,56.7,102.3,54.5,129.8a138.478,138.478,0,0,1-13.2,23.8c10.6-23.1-8.1-64.2-53.9-147.3C198.7,53.4,170.1,1.5,198.5,9.3Zm29.7,15.1c3.1,2.1,6.2,4.3,9.2,6.6a2.882,2.882,0,0,0-2.6-.4c-1.3,3.2,4,12.2,18,36.1,25.5,43.3,38.8,68.7,41.1,88.4a145.158,145.158,0,0,1-3.9,26.3c.1-.4.2-.9.3-1.3,2.1-21.5-12.8-51.9-44.6-107.9-11.5-20.2-31-54.4-17.5-47.8Zm15.5,11.8A146.966,146.966,0,0,1,293.9,139c-.4-4.6-1-9.3-1.8-13.9-7.7-34.3-34.3-58.4-48.7-89Z" fill="#d61f26" fill-rule="evenodd"/>
    <path id="Caminho_2" data-name="Caminho 2" d="M365.9,196.5a17.566,17.566,0,0,1,11.9-17c9.2-3.3,19.3-3.7,29.1-3.7s19.9.3,29.1,3.7a17.759,17.759,0,0,1,11.5,13.1,3.248,3.248,0,0,1-.6,2.7,3.034,3.034,0,0,1-2.5,1.2h-8a3,3,0,0,1-3-2.2,6.991,6.991,0,0,0-4.8-4.5,91.023,91.023,0,0,0-43.2,0,6.582,6.582,0,0,0-5.1,6.7,6.763,6.763,0,0,0,5.1,6.7,82.95,82.95,0,0,0,21.6,2.6c9.8,0,19.9.3,29.1,3.7a18.093,18.093,0,0,1,0,34c-9.2,3.3-19.3,3.7-29.1,3.7s-19.9-.3-29.1-3.7a17.759,17.759,0,0,1-11.5-13.1,3.248,3.248,0,0,1,.6-2.7,3.034,3.034,0,0,1,2.5-1.2h8a3,3,0,0,1,3,2.2,6.991,6.991,0,0,0,4.8,4.5,91.023,91.023,0,0,0,43.2,0,6.582,6.582,0,0,0,5.1-6.7,6.763,6.763,0,0,0-5.1-6.7,82.95,82.95,0,0,0-21.6-2.6c-9.8,0-19.9-.3-29.1-3.7a17.657,17.657,0,0,1-11.9-17Zm574.8,47.4a3.159,3.159,0,0,1-3.2,3.2h-8.8a3.338,3.338,0,0,1-2.9-1.8l-4.9-9.6H878.3l-4.9,9.6a3.223,3.223,0,0,1-2.9,1.8h-8.8a3.113,3.113,0,0,1-2.8-4.6l32.7-64.9a3.223,3.223,0,0,1,2.9-1.8h10.3a3.338,3.338,0,0,1,2.9,1.8l32.7,64.9a3.194,3.194,0,0,1,.3,1.4Zm-25.4-19.6h0l-15.6-30.9-15.6,30.9ZM796.3,184a3.159,3.159,0,0,0,3.2,3.2h27.1v56.7a3.159,3.159,0,0,0,3.2,3.2h7.8a3.159,3.159,0,0,0,3.2-3.2V187.2H868a3.159,3.159,0,0,0,3.2-3.2v-5a3.159,3.159,0,0,0-3.2-3.2H799.5a3.159,3.159,0,0,0-3.2,3.2v5Zm12.9,59.9a3.159,3.159,0,0,1-3.2,3.2h-8.8a3.338,3.338,0,0,1-2.9-1.8l-4.9-9.6H746.8l-4.9,9.6a3.223,3.223,0,0,1-2.9,1.8h-8.8a3.113,3.113,0,0,1-2.8-4.6l32.7-64.9a3.223,3.223,0,0,1,2.9-1.8h10.3a3.338,3.338,0,0,1,2.9,1.8l32.7,64.9a3.194,3.194,0,0,1,.3,1.4Zm-25.4-19.6h0l-15.6-30.9-15.6,30.9Zm-65.3-12.9c0,10.1-.5,22.4-7.8,29.4-5,5.2-13.5,6.2-20.7,6.2H639.7a3.044,3.044,0,0,1-3.2-3.2V179a3.044,3.044,0,0,1,3.2-3.2H690c7.2,0,15.7,1.1,20.7,6.2,7.3,7.1,7.8,19.3,7.8,29.4Zm-14.2,0h0c0-6.9-.4-15.2-5.3-20-3.4-3.5-9.2-4.2-14.1-4.2H650.8v48.5h34.1c4.9,0,10.7-.7,14.1-4.2,4.9-4.9,5.3-13.2,5.3-20.1Zm-162-14.9a17.566,17.566,0,0,1,11.9-17c9.2-3.3,19.3-3.7,29.1-3.7s19.9.3,29.1,3.7a17.759,17.759,0,0,1,11.5,13.1,3.248,3.248,0,0,1-.6,2.7,3.034,3.034,0,0,1-2.5,1.2h-8a3,3,0,0,1-3-2.2,6.991,6.991,0,0,0-4.8-4.5,91.023,91.023,0,0,0-43.2,0,6.582,6.582,0,0,0-5.1,6.7,6.763,6.763,0,0,0,5.1,6.7,82.95,82.95,0,0,0,21.6,2.6c9.8,0,19.9.3,29.1,3.7a18.093,18.093,0,0,1,0,34c-9.2,3.3-19.3,3.7-29.1,3.7s-19.9-.3-29.1-3.7a17.759,17.759,0,0,1-11.5-13.1,3.248,3.248,0,0,1,.6-2.7,3.034,3.034,0,0,1,2.5-1.2h8a3,3,0,0,1,3,2.2,6.991,6.991,0,0,0,4.8,4.5,91.023,91.023,0,0,0,43.2,0,6.582,6.582,0,0,0,5.1-6.7,6.763,6.763,0,0,0-5.1-6.7,82.95,82.95,0,0,0-21.6-2.6c-9.8,0-19.9-.3-29.1-3.7a17.657,17.657,0,0,1-11.9-17Zm-43.8,50.6h-7.8a3.159,3.159,0,0,1-3.2-3.2V214.6l-29.3-28.2-.3-.3a3.186,3.186,0,0,1,.5-4.5l6.3-5a3.191,3.191,0,0,1,4.2.2l25.7,24.8,25.7-24.8a3.2,3.2,0,0,1,4.2-.2l6.3,5,.3.3a3.169,3.169,0,0,1-.1,4.5l-29.3,28.2v29.3A3.159,3.159,0,0,1,498.5,247.1Z" fill-rule="evenodd"/>
    <path id="Caminho_3" data-name="Caminho 3" d="M365.9,136.8c0,3.2.5,7,2.8,9.3,3.1,3.2,8.6,3.5,13.1,3.5s9.8-.2,13-3.4a.923.923,0,0,0,.3-.9,1.235,1.235,0,0,0-.4-.8c-.7-.6-1.5-1.2-2.2-1.7a1.116,1.116,0,0,0-1.6.1c-.1.1-.2.2-.2.3-2.1,2.2-5.8,2.4-8.9,2.4s-6.8-.2-8.9-2.4c-1.6-1.5-1.9-4.1-1.9-6.3s.3-4.8,1.9-6.3c2.1-2.2,5.8-2.4,8.9-2.4s6.8.2,8.9,2.4c.1.1.2.2.2.3a1.116,1.116,0,0,0,1.6.1c.7-.6,1.5-1.2,2.2-1.8a.91.91,0,0,0,.4-.8,1.613,1.613,0,0,0-.3-.9c-3.2-3.1-8.5-3.4-13-3.4s-10,.2-13.1,3.5c-2.3,2.2-2.8,5.9-2.8,9.2Zm352.9,11.5v-1.8a1.11,1.11,0,0,0-1.1-1.1H702.3V125.2a1.11,1.11,0,0,0-1.1-1.1h-2.8a1.11,1.11,0,0,0-1.1,1.1v23.1a1.11,1.11,0,0,0,1.1,1.1h19.3a1,1,0,0,0,1.1-1.1Zm-26.5-.5-11.6-23.1a1.1,1.1,0,0,0-1-.6H676a1.1,1.1,0,0,0-1,.6l-11.6,23.1a1.056,1.056,0,0,0,.5,1.5.9.9,0,0,0,.5.1h3.1a1.1,1.1,0,0,0,1-.6l1.7-3.4h15.2l1.7,3.4a1.1,1.1,0,0,0,1,.6h3.1a1.11,1.11,0,0,0,1.1-1.1c.1-.1,0-.3,0-.5Zm-20.1-6.4,5.5-11,5.5,11Zm-32.4-13.3a1.11,1.11,0,0,1-1.1-1.1v-1.8a1.11,1.11,0,0,1,1.1-1.1h24.4a1.11,1.11,0,0,1,1.1,1.1V127a1.11,1.11,0,0,1-1.1,1.1h-9.6v20.2a1.11,1.11,0,0,1-1.1,1.1h-2.8a1.11,1.11,0,0,1-1.1-1.1V128.1Zm-7.9,21.4a1.11,1.11,0,0,0,1.1-1.1V125.3a1.11,1.11,0,0,0-1.1-1.1h-2.8a1.11,1.11,0,0,0-1.1,1.1v23.1a1.11,1.11,0,0,0,1.1,1.1Zm-41.1-12.7c0,3.2.5,7,2.8,9.2,3.1,3.2,8.6,3.5,13.1,3.5s9.9-.2,13.1-3.5c2.3-2.2,2.8-6,2.8-9.2v-.9a1.049,1.049,0,0,0-1.1-1.1H607.9a1.049,1.049,0,0,0-1.1,1.1v1.8a1.049,1.049,0,0,0,1.1,1.1h9.5a6.737,6.737,0,0,1-1.8,4.2c-2.1,2.2-5.8,2.4-8.9,2.4s-6.8-.2-8.9-2.4c-1.6-1.5-1.9-4.1-1.9-6.3s.3-4.8,1.9-6.3c2.1-2.2,5.8-2.4,8.9-2.4s6.8.2,8.9,2.4c.1.1.2.2.2.3a1.116,1.116,0,0,0,1.6.1c.7-.6,1.5-1.2,2.2-1.8a.91.91,0,0,0,.4-.8,1.613,1.613,0,0,0-.3-.9c-3.2-3.1-8.5-3.4-13-3.4s-10,.2-13.1,3.5c-2.3,2.4-2.8,6.2-2.8,9.4Zm-6.6,12.7a1.11,1.11,0,0,0,1.1-1.1V125.3a1.11,1.11,0,0,0-1.1-1.1h-2.8a1.11,1.11,0,0,0-1.1,1.1v23.1a1.11,1.11,0,0,0,1.1,1.1ZM572,126.3c-1.8-1.8-4.8-2.2-7.4-2.2H546.7a1.049,1.049,0,0,0-1.1,1.1v23.1a1.049,1.049,0,0,0,1.1,1.1h17.9c2.6,0,5.6-.4,7.4-2.2,2.6-2.5,2.8-6.9,2.8-10.5,0-3.5-.2-7.9-2.8-10.4Zm-4.2,17.6c-1.2,1.3-3.3,1.5-5,1.5H550.6V128.1h12.2c1.8,0,3.8.3,5,1.5,1.8,1.7,1.9,4.7,1.9,7.1,0,2.5-.1,5.5-1.9,7.2Zm-44.9,3.9-11.6-23.1a1.1,1.1,0,0,0-1-.6h-3.7a1.1,1.1,0,0,0-1,.6L494,147.8a1.056,1.056,0,0,0,.5,1.5.9.9,0,0,0,.5.1h3.1a1.1,1.1,0,0,0,1-.6l1.7-3.4H516l1.7,3.4a1.1,1.1,0,0,0,1,.6h3.1a1.11,1.11,0,0,0,1.1-1.1.446.446,0,0,0,0-.5Zm-20-6.4,5.5-11,5.5,11ZM470,128.2a1.11,1.11,0,0,1-1.1-1.1v-1.8a1.11,1.11,0,0,1,1.1-1.1h24.4a1.11,1.11,0,0,1,1.1,1.1v1.8a1.11,1.11,0,0,1-1.1,1.1h-9.6v20.2a1.11,1.11,0,0,1-1.1,1.1h-2.8a1.11,1.11,0,0,1-1.1-1.1V128.2Zm-11,20.9a.975.975,0,0,0,.9.4h3.4a1.11,1.11,0,0,0,1.1-1.1V125.3a1.11,1.11,0,0,0-1.1-1.1h-2.8a1.11,1.11,0,0,0-1.1,1.1v18l-16.2-18.8a.975.975,0,0,0-.9-.4h-3.4a1.11,1.11,0,0,0-1.1,1.1v23.1a1.11,1.11,0,0,0,1.1,1.1h2.8a1.11,1.11,0,0,0,1.1-1.1v-18L459,149.1Zm-30.3-21.6c-3.1-3.2-8.6-3.5-13.1-3.5s-10,.2-13.1,3.5c-2.3,2.2-2.8,6-2.8,9.3,0,3.2.5,7,2.8,9.3,3.1,3.2,8.6,3.5,13.1,3.5s10-.2,13.1-3.5c2.3-2.2,2.8-6,2.8-9.3-.1-3.3-.6-7-2.8-9.3Zm-4.2,15.6c-2.1,2.2-5.8,2.4-8.9,2.4s-6.8-.2-8.9-2.4c-1.6-1.5-1.9-4.1-1.9-6.3s.3-4.8,1.9-6.3c2.1-2.2,5.8-2.4,8.9-2.4s6.8.2,8.9,2.4c1.6,1.5,1.9,4.1,1.9,6.3S426,141.5,424.5,143.1Z" fill-rule="evenodd"/>
  </g>
</svg>
